# xmcd CD database file
#
# Track frame offsets:
#	150
#	11926
#	31947
#	48123
#	60941
#	82827
#	100275
#	123407
#	135270
#	162135
#	180269
#
# Disc length: 2657 seconds
#
# Revision: 0
# Processed by: cddbd v1.5.1PL0 Copyright (c) Steve Scherf et al.
# Submitted via: CDex 1.51
#
DISCID=750a5f0b
DTITLE=Red Hot Dixie Devils - Red Hot Dixie Devils
DYEAR=1997
DGENRE=Jazz
TTITLE0=Muskrat Ramble
TTITLE1=Margie
TTITLE2=Midnight in Moscow
TTITLE3=Jazz me Blues
TTITLE4=St. James Infirmary
TTITLE5=Indiana
TTITLE6=Georgia
TTITLE7=That Dada Strain
TTITLE8=Big Butter and Egg Man
TTITLE9=Night and day
TTITLE10=Just a closer walk
EXTD=YEAR: 1997
EXTT0=
EXTT1=
EXTT2=
EXTT3=
EXTT4=
EXTT5=
EXTT6=
EXTT7=
EXTT8=
EXTT9=
EXTT10=
PLAYORDER=
